<svg id="arrow-icon" xmlns="http://www.w3.org/2000/svg" width="46" height="46" viewBox="0 0 46 46">
  <path id="Path_16224" data-name="Path 16224" d="M25.183,12.325a2.158,2.158,0,0,0-2.937,3.162l6.046,5.607H12.938a2.156,2.156,0,1,0,0,4.313H28.292l-6.038,5.607a2.158,2.158,0,1,0,2.937,3.162l10.062-9.344a2.184,2.184,0,0,0,.685-1.581,2.16,2.16,0,0,0-.688-1.58ZM23,.25a23,23,0,1,0,23,23A23,23,0,0,0,23,.25Zm0,41.688A18.688,18.688,0,1,1,41.688,23.25,18.708,18.708,0,0,1,23,41.938Z" transform="translate(0 -0.25)" fill="#ffc400"/>
</svg>
